<?xml version="1.0" standalone="no"?>
<!DOCTYPE svg PUBLIC "-//W3C//DTD SVG 20010904//EN"
 "http://www.w3.org/TR/2001/REC-SVG-20010904/DTD/svg10.dtd">
<svg version="1.0" xmlns="http://www.w3.org/2000/svg"
 width="500.000000pt" height="500.000000pt" viewBox="0 0 500.000000 500.000000"
 preserveAspectRatio="xMidYMid meet">
<metadata>
Created by potrace 1.11, written by Peter Selinger 2001-2013
</metadata>
<g transform="translate(0.000000,500.000000) scale(0.100000,-0.100000)"
fill="#000000" stroke="none">
<path d="M0 2500 l0 -2500 2500 0 2500 0 0 2500 0 2500 -2500 0 -2500 0 0
-2500z m1781 2158 c10 -19 749 -1875 749 -1882 0 -3 -144 -6 -319 -6 l-320 0
-39 103 -40 102 -311 3 c-171 1 -311 6 -311 10 0 4 29 88 64 187 l63 180 172
3 c94 1 171 4 171 6 0 2 -112 295 -250 651 -137 356 -250 650 -250 653 0 4
138 6 307 5 237 -2 308 -5 314 -15z m1539 -933 l0 -955 -122 0 -123 0 -192
191 -193 191 0 577 0 576 183 182 182 183 130 3 c72 1 131 4 133 5 1 1 2 -428
2 -953z m982 758 l188 -188 0 -187 0 -188 -320 0 -320 0 0 190 0 190 -210 0
-210 0 0 188 0 187 342 -2 342 -2 188 -188z m-2951 -615 c11 -35 2 -67 -162
-567 l-174 -531 -307 0 -308 0 22 58 c15 42 376 1009 654 1752 5 12 238 -591
275 -712z m3139 -576 l0 -137 -193 -193 -192 -192 -338 0 -337 0 0 190 0 190
210 0 210 0 0 140 0 140 320 0 320 0 0 -138z m-3220 -1392 l0 -340 443 0 442
-1 183 -189 182 -190 0 -232 0 -233 -192 -192 -193 -193 -127 0 -128 0 0 360
0 360 -412 0 -413 0 -192 192 -193 193 0 210 0 210 192 192 193 193 107 0 108
0 0 -340z m1032 173 l168 -168 0 -97 0 -98 -295 0 -295 0 0 95 0 95 -255 0
-255 0 0 170 0 170 382 0 383 0 167 -167z m2088 -38 l0 -205 -830 0 -830 0 0
205 0 205 830 0 830 0 0 -205z m-495 -1005 l0 -695 -332 -3 -333 -2 0 693 c0
382 3 697 7 700 4 4 153 6 332 5 l326 -3 0 -695z m-2585 -240 l0 -110 235 0
235 0 0 -175 0 -175 -394 0 -394 0 -161 191 -161 191 0 94 0 94 320 0 320 0 0
-110z"/>
</g>
</svg>
